<svg data-name="Layer 1" xmlns="http://www.w3.org/2000/svg" width="989" height="766.0867"><path d="M603.1056 447.1583h-193.913c9.0255-97.3236 14.6663-189.315 0-249.3167h193.913c-3.3348 77.6846-2.9471 161.4204 0 249.3167z" fill="#3f3d56"/><path fill="#fdba74" d="M443.8199 237.3168h124.6584v83.1056H443.8199zM432.7391 349.5093H579.559v2.7702H432.7391zM432.7391 361.9752H579.559v2.7702H432.7391zM432.7391 374.441H579.559v2.7702H432.7391zM432.7391 386.9068H579.559v2.7702H432.7391zM432.7391 399.3727H579.559v2.7702H432.7391zM662.3555 422.269a6.6162 6.6162 0 00-3.9011 1.3724c-3.3249-8.7866-8.472-14.4332-14.2544-14.4332s-10.9296 5.6466-14.2545 14.4332a6.6161 6.6161 0 00-3.901-1.3725c-6.5695 0-11.895 11.1103-11.895 24.8154h60.101c0-13.7051-5.3256-24.8154-11.895-24.8154z"/><path d="M671.4802 447.0843h-85.0324v-1.385c0-19.8228 7.76-35.351 17.666-35.351a9.842 9.842 0 014.6599 1.2078c4.9655-12.1547 12.2676-19.0842 20.19-19.0842s15.2252 6.9295 20.1907 19.0842a9.842 9.842 0 014.6598-1.2079c9.906 0 17.666 15.5282 17.666 35.351zm-82.248-2.7701h79.4637c-.345-17.0486-7.0195-31.1958-14.8817-31.1958a7.6985 7.6985 0 00-4.5272 1.615l-1.467 1.0632-.6404-1.6948c-4.536-11.9857-11.1754-18.8597-18.2159-18.8597s-13.6791 6.874-18.2152 18.8597l-.6404 1.6948-1.467-1.0632a7.6985 7.6985 0 00-4.5272-1.615c-7.8622 0-14.5367 14.1472-14.8817 31.1957z" fill="#3f3d56"/><path d="M385.3368 422.269a6.6161 6.6161 0 00-3.901 1.3724c-3.3248-8.7866-8.472-14.4332-14.2544-14.4332s-10.9296 5.6466-14.2545 14.4332a6.6162 6.6162 0 00-3.901-1.3725c-6.5694 0-11.895 11.1103-11.895 24.8154h60.101c-.0001-13.7051-5.3257-24.8154-11.895-24.8154z" fill="#fdba74"/><path d="M394.4616 447.0843h-85.0324v-1.385c0-19.8228 7.76-35.351 17.666-35.351a9.842 9.842 0 014.6598 1.2078c4.9655-12.1547 12.2677-19.0842 20.19-19.0842s15.2252 6.9295 20.1907 19.0842a9.842 9.842 0 014.6598-1.2079c9.906 0 17.666 15.5282 17.666 35.351zm-82.248-2.7701h79.4637c-.345-17.0486-7.0195-31.1958-14.8817-31.1958a7.6985 7.6985 0 00-4.5272 1.615l-1.467 1.0632-.6404-1.6948c-4.536-11.9857-11.1755-18.8597-18.2159-18.8597s-13.6791 6.874-18.2152 18.8597l-.6405 1.6948-1.4669-1.0632a7.6985 7.6985 0 00-4.5272-1.615c-7.8622 0-14.5368 14.1472-14.8817 31.1957z" fill="#3f3d56"/><path d="M989 236A148.1353 148.1353 0 11837.61 88.04c.46-.01.92-.02 1.39-.03.66-.01 1.33-.01 2-.01 1.68 0 3.36.03 5.03.09q5.52.18 10.92.76c2.08.22 4.13.49 6.18.79.23.04.47.07.7.11a146.1978 146.1978 0 0124.89 6.11A148.0773 148.0773 0 01989 236z" fill="#fdba74"/><ellipse cx="831.0218" cy="309.532" rx=".9909" ry="2.6424" transform="rotate(-57.656 717.4454 371.8946)" fill="#3f3d56"/><path d="M723.4286 235.3855a4.6242 4.6242 0 016.3807-1.4328l58.6012 37.1092a4.6242 4.6242 0 011.4328 6.3807l-66.4147-42.057z" fill="#d0cde1"/><path d="M717.885 237.3484l1.8437-2.9113a3.16 3.16 0 014.3602-.9791l66.7224 42.2519a3.7425 3.7425 0 011.1596 5.164l-1.532 2.4192-72.5539-45.9447z" fill="#2f2e41"/><path fill="#d0cde1" d="M727.1122 240.0639l.7069-1.1162 4.4649 2.8273-.7069 1.1162zM733.2514 243.9516l.7069-1.1162 4.4648 2.8274-.7068 1.1162z"/><circle cx="822.3953" cy="65.5835" r="41.6519" fill="#ffb8b8"/><path d="M824.935 95.0446s20.318 32.0008 15.2385 41.1439-20.826 34.0326-20.826 34.0326 70.097-51.8108 60.954-62.9857c0 0-20.8259-17.7783-21.8418-28.9532z" fill="#ffb8b8"/><path d="M881.06 378.52a148.6943 148.6943 0 01-101.75-7.95l3.2-85.5.24-6.65.09-2.16.11-3.1801.08-2.03s.13-.01.38-.02c.68-.05 2.25-.16 4.5-.29 2.61-.15 6.12-.34 10.21-.51.97-.04 1.97-.08 3-.13 21.54-.8 55.18-.97 59.63 5.52l.56 3.82.9 6.17 1.84 12.61s20.92 41.6001 17.01 80.3z" fill="#2f2e41"/><path d="M919.4137 159.0462l-35.9832 79.611-15.6246 34.561-5.7906 12.8155-83.8117-1.0159 8.6352-58.4142c-12.1908-31.4929 16.7623-44.1916 16.7623-44.1916l24.3816-25.9817v4.1398s23.8736-28.4451 34.5406-44.6995 25.3975-10.159 25.3975-10.159c25.3975-2.5398 31.4929 53.3346 31.4929 53.3346z" fill="#575a89"/><path d="M883.4305 238.6572l-15.6246 34.5609c-5.0185-9.387-8.8383-20.0183-8.8383-26.2966 0-17.2702 17.2703-8.1272 17.2703-8.1272s-13.9686-76.4464-13.9686-99.3041c0-15.1826 12.658 52.1969 21.1612 99.167z" opacity=".2"/><path d="M869.6346 244.3818l-75.6845-1.5239s-55.3665 4.5716-47.2393 26.9214 52.3188 0 52.3188 0l88.3832 13.7146z" fill="#ffb8b8"/><path d="M883.8572 109.7751s-26.4134 2.0318-26.4134 24.8896 23.8736 104.1296 23.8736 104.1296-17.2703-9.143-17.2703 8.1272 28.9532 67.5573 32.0009 34.0327c0 0 43.6836 21.3339 41.1439-18.7942s-29.969-124.9556-29.969-124.9556-3.0477-28.9531-23.3657-27.4293z" fill="#575a89"/><path d="M823.7808 61.053c-2.9168-2.8228-2.863-7.5836-5.2137-10.8927-3.6914-5.1963-11.377-4.848-17.6876-3.9509-4.1946.5963-8.4507 1.2099-12.3434 2.868a12.1624 12.1624 0 00-7.1403 8.1768c-.4943 2.047-1.5842-3.761-2.6931-11.2833a36.6387 36.6387 0 0120.0535-38.2335q.1241-.061.2461-.1202c7.1378-3.4687 14.6154-6.532 22.5046-7.3928s16.3074.6978 22.4948 5.6672c2.828 2.2712 5.1282 5.187 8.16 7.1779 5.327 3.498 12.0726 3.6674 18.4026 4.4048 7.1588.834 14.334 2.5853 20.5143 6.2933s11.3003 9.558 13.0185 16.5574c2.0043 8.1647-1.2668 17.8164-9.2941 21.3594a9.6737 9.6737 0 00-3.6283 2.6623c-6.5917 8.0582 4.0497 12.4672 5.593 19.4813 1.2877 5.8527-4.3406 11.1518-10.1126 12.7633-10.75 3.0015-23.2635-2.977-27.6829-13.226-1.9798-4.5914-2.4305-9.6703-2.9692-14.6412-.6165-5.69-15.5407-15.996-5.4654-8.2438a14.0689 14.0689 0 014.469 5.6524c3.065 7.3371-3.2961 11.5018-6.708 16.7402a18.6345 18.6345 0 00-.1053 19.704c-8.8437-4.6207-13.317-16.2028-9.875-25.5685.915-2.4895 2.3017-4.791 3.1331-7.3096 1.2973-3.9302.1508-11.5677-5.6499-10.0193-4.1403 1.1052-7.6786 5.5755-12.0207 1.3735z" fill="#2f2e41"/><path d="M296 580a147.9937 147.9937 0 01-93.82 137.75c-2.17.87-4.38 1.68-6.6 2.43q-3.72 1.275-7.52 2.34-2.64.735-5.33 1.38a148.9209 148.9209 0 01-81.61-3.48c-2.07-.69-4.12-1.43-6.15-2.2-2.73-1.05-5.43-2.18-8.08-3.39-.2-.08-.39-.17-.58-.26-1.04-.48-2.05-.96-3.08-1.47h-.01q-2.115-1.02-4.19-2.12-4.77-2.52-9.33-5.37-2.37-1.47-4.67-3.05a147.9388 147.9388 0 0153-267.52q3.915-.81 7.91-1.4c1.67-.26 3.36-.48 5.05-.67 1.21-.14 2.42-.27 3.65-.37h.01q4.935-.45 9.96-.56c.46-.01.92-.02 1.39-.03.26 0 .52-.01.78 0h.01c.4-.01.8-.01 1.21-.01 1.68 0 3.36.03 5.03.09q5.52.18 10.92.76c2.08.22 4.13.49 6.18.79.23.04.47.07.7.11.68.11 1.37.22 2.05.34 1.44.2301 2.87.5 4.3.79 1.34.27 2.67.55 4 .85a144.1333 144.1333 0 0114.54 4.13 148.4096 148.4096 0 0177.94 61.93q.765 1.215 1.5 2.46c.38.62.74 1.24 1.1 1.87q.195.315.36.63c.08.12.14.24.21.36.66 1.15 1.3 2.32 1.92 3.49A147.344 147.344 0 01296 580z" fill="#fdba74"/><path d="M228.2378 527.1393s34.354-30.1993 47.1159-9.0907-35.7555 29.6536-38.5584 28.5622-8.5575-19.4715-8.5575-19.4715z" fill="#a0616a"/><path d="M161.4148 549.5376s40.6544-13.2207 47.5872-18.5908 13.32-9.3388 14.7214-8.7932 10.5914-2.3316 10.5914-2.3316l10.8892 30.063s-43.4573 12.1293-44.5487 14.9322-39.2405-15.2795-39.2405-15.2795z" fill="#575a89"/><path d="M182.73 723.9a148.9209 148.9209 0 01-81.61-3.48l1.8-17.02 1.67-15.9 25.05-38.73 8.03-12.41 33.09 12.03 3.37 21.25 5.37 33.89z" fill="#2f2e41"/><path d="M202.18 717.75c-2.17.87-4.38 1.68-6.6 2.43q-3.72 1.275-7.52 2.34-2.64.735-5.33 1.38a148.9209 148.9209 0 01-81.61-3.48c-2.07-.69-4.12-1.43-6.15-2.2a115.1851 115.1851 0 01-.54 17.75 209.8222 209.8222 0 01-7.54-21.14c-.15-.48-.29-.96-.43-1.44-.7-2.42-1.32-4.73-1.88-6.9-.64-2.51-1.19-4.84-1.65-6.97-1.83-8.36-2.41-13.53-2.41-13.53l19.55-40.6 3.91.45 1.62.18 9.8 1.12 14.24 1.63 23.07 2.63 21.42 18.24 19.19 16.35s1.6 5.44 4.11 14.45c1.36 4.84 2.97 10.71 4.75 17.31z" fill="#2f2e41"/><circle cx="167.2006" cy="404.0902" r="34.5906" fill="#a0616a"/><path d="M138.9376 405.8303l-18.1029 38.728 50.8248 35.2044s-5.9826-41.9267 5.288-52.5441-38.0099-21.3883-38.0099-21.3883z" fill="#a0616a"/><path d="M178.279 482.9595s-24.063-49.63-43.6143-49.63-70.6853 34.5906-69.1813 42.1103 1.504 9.0236 1.504 13.5355-10.5276 4.5118-1.504 7.5197 10.5276 6.0157 10.5276 6.0157l-7.5197 192.5044s33.0867 12.0315 45.1182 7.5197 24.063-34.5906 24.063-34.5906-3.0078 40.6064 9.0237 39.1024 57.1497-4.5118 58.6537-10.5276-9.0237-138.3625-9.0237-138.3625z" fill="#575a89"/><path d="M94.43 735.97v.02c-1.54 13.33-6.21 26.84-18.42 29.71-20.74 4.88-12.78-37.74-9.04-54.01.88-3.79 1.52-6.15 1.52-6.15l1.21.07 14.88.88 9.48.56s.39 2.75.69 7.06c.09 1.25.17 2.63.22 4.11a115.1851 115.1851 0 01-.54 17.75z" fill="#a0616a"/><path d="M100.074 470.928L56.4598 582.2194s-6.0158 12.0316 0 21.0552-3.008 63.1655 3.0078 75.197 6.0158 33.0867 6.0158 33.0867l34.5906 3.008 7.5197-132.3468 39.1025-84.2207s-3.0079-34.5906-46.6222-27.071z" fill="#575a89"/><path d="M111.3536 467.1681s-27.071 7.5197-36.0946 34.5906z" opacity=".1"/><path d="M144.5321 419.8714c3.3654-.2008 6.6515.9365 9.9935 1.3802 11.957 1.5875 24.3958-7.089 27.036-18.8584a14.4699 14.4699 0 011.3827-4.5055c1.8402-3.0045 6.0313-3.5773 9.4861-2.8864s6.7298 2.3078 10.2483 2.4924c5.4325.285 10.648-3.0594 13.5432-7.665s3.715-10.2728 3.3241-15.6988l-2.6043 2.7334a13.2281 13.2281 0 01-1.1792-7.1893 8.3425 8.3425 0 00-7.9021 2.022c-2.2964.2444-.5633-4.2594-2.2693-5.8159-.7144-.6517-1.8097-.5288-2.7767-.5194-4.8853.047-8.8373-3.6896-12.687-6.6976a53.912 53.912 0 00-22.7698-10.3862c-5.5165-1.076-11.3826-1.2489-16.6142.8053-4.2964 1.687-7.8926 4.7596-11.2198 7.9589-8.1905 7.8758-15.4434 17.1296-18.8509 27.9694a47.0842 47.0842 0 00-.2255 27.3024c1.373 4.6341 5.511 20.5047 11.5688 20.8743 7.6117.4644 3.0417-12.7505 12.5161-13.3158z" fill="#2f2e41"/><path opacity=".1" d="M146.99 530.501l-35.421 51.951-11.328 120.67 46.749-172.621z"/><ellipse cx="392.8054" cy="566.1264" rx="2.6424" ry=".9909" transform="rotate(-54.493 275.0431 635.0844)" fill="#3f3d56"/><path d="M240.8756 555.714a4.6242 4.6242 0 01-1.0785-6.45l40.2864-56.4642a4.6242 4.6242 0 016.45-1.0785l-45.6578 63.9928z" fill="#d0cde1"/><path d="M242.5297 561.3575l-2.331-1.6631a3.7425 3.7425 0 01-.8728-5.2203l45.8692-64.2892a3.16 3.16 0 014.4077-.737l2.8052 2.0015-49.8783 69.908z" fill="#2f2e41"/><path fill="#d0cde1" d="M281.816 501.7453l-1.0755-.7674 3.0695-4.302 1.0755.7674zM277.5955 507.6606l-1.0755-.7674 3.0695-4.302 1.0755.7673z"/><path fill="#3f3d56" d="M283 445h446v2H283z"/></svg>