<svg data-name="Layer 1" xmlns="http://www.w3.org/2000/svg" width="1046" height="638.5836"><path d="M161.2308 554.6453c8.565 31.6618 37.9025 51.2708 37.9025 51.2708s15.4507-31.725 6.8856-63.3868-37.9026-51.2708-37.9026-51.2708-15.4507 31.725-6.8855 63.3868z" fill="#3f3d56"/><path d="M173.8166 547.8408c23.5028 22.879 26.3735 58.0495 26.3735 58.0495s-35.2349-1.9239-58.7377-24.803-26.3735-58.0494-26.3735-58.0494 35.2349 1.924 58.7377 24.803z" fill="#fdba74"/><path fill="#2f2e41" d="M113.4736 636.0293H941.078v2.5543H113.4736z"/><path d="M210.7326 637.3065h-33.2063V604.1h33.2063zm-30.652-2.5544h28.0977v-28.0976h-28.0977zM0 25.3219h281.4198v281.4198H0z" fill="#3f3d56"/><path d="M281.4198 95.3377v6.4591a29.2052 29.2052 0 01-10.0362-11.3755c-3.7466-7.6627-3.628-16.4952-3.5093-25.0395.1357-10.1548.2713-19.7333-6.1709-25.972-7.0863-6.849-18.4279-5.8827-29.3964-4.9502-1.2885.1017-2.5769.2203-3.8484.322-11.0025.8307-23.2595-1.9496-29.21-9.4597h7.4254c5.442 3.6618 13.766 4.9502 21.4116 4.3738 1.2377-.0848 2.5092-.2035 3.7806-.3052 11.545-.9832 24.6327-2.1021 33.3635 6.3574 8.0357 7.7645 7.8831 18.9196 7.7306 29.7017-.1187 7.951-.2204 16.1562 3.0007 22.7339a23.2498 23.2498 0 005.4588 7.1542zM281.4198 140.0088v7.5611a32.155 32.155 0 00-4.1366-4.4586c-8.7477-7.7136-21.3099-9.409-33.4482-11.0703-1.5766-.2035-3.1194-.4238-4.662-.6442-19.6826-2.8313-31.8887-9.5955-37.2967-20.6319-3.7466-7.6627-3.628-16.4952-3.5092-25.0395.1356-10.1548.2712-19.7333-6.171-25.972-7.0863-6.849-18.4279-5.8828-29.3964-4.9503-1.2884.1018-2.5769.2203-3.8484.322-14.1388 1.068-30.3628-3.8312-32.5837-17.0715-.7628-4.5435.373-8.714 2.0514-12.7318h5.5606c-1.8649 4.0349-3.255 7.934-2.5939 11.8841 1.6784 10.104 15.2747 13.7319 27.1926 12.8333 1.2377-.0847 2.5091-.2034 3.7806-.3051 11.545-.9832 24.6327-2.1022 33.3635 6.3574 8.0357 7.7645 7.883 18.9196 7.7306 29.7017-.1187 7.951-.2204 16.1562 3.0007 22.7339 4.6111 9.426 15.5458 15.2577 33.4482 17.8346 1.5257.2204 3.0685.4408 4.6112.6442 12.8843 1.7462 26.2263 3.56 36.1438 12.291q.3815.3305.7629.712zM281.4198 267.4615v10.443c-6.12-6.51-11.2399-15.444-15.156-26.6162-.8307-2.3733-1.6276-4.7977-2.4243-7.222-4.3909-13.274-8.9343-26.9891-19.7503-35.7538-11.562-9.358-28.125-11.4263-44.1455-13.4268-2.0514-.2543-4.1026-.5086-6.137-.7798-25.972-3.4415-42.0604-11.6297-49.1977-25.0226-4.9502-9.3072-4.7977-20.0215-4.645-30.3798.1864-12.3079.373-23.9376-8.1375-31.4987-9.3411-8.307-24.3106-7.1372-38.7715-6.0013-1.7123.1355-3.4076.2712-5.069.3899-18.6652 1.2884-40.0768-4.6451-42.9928-20.6997-1.441-7.866 2.2378-14.8338 5.781-21.5811 2.0344-3.8653 3.967-7.5441 4.9502-11.3246 2.0684-7.7815-.4916-16.5461-6.1709-22.6661h8.307a29.8687 29.8687 0 014.3908 24.124c-1.1697 4.4247-3.3397 8.5613-5.4419 12.5623-3.238 6.137-6.2726 11.9348-5.2045 17.8684 2.2378 12.24 20.157 16.6478 35.8725 15.5628 1.6444-.1187 3.3228-.2543 5.0011-.3729 15.2239-1.2037 32.482-2.543 44.01 7.7136 10.5956 9.409 10.3922 22.9374 10.1888 36.0082-.1357 9.6462-.2883 19.5976 3.95 27.5825 6.0862 11.4094 20.5301 18.4957 44.1457 21.632 2.0004.2713 4.0348.5255 6.069.7798 17.021 2.1192 34.6012 4.306 47.672 14.9017 12.257 9.9345 17.0885 24.497 21.7336 38.585.7969 2.4074 1.5936 4.7807 2.4074 7.1372a80.351 80.351 0 008.7648 18.055zM0 138.9578c7.7306 9.358 24.1241 12.8165 38.8224 11.7993 1.6614-.1187 3.3567-.2543 5.069-.39 14.4608-1.1358 29.4303-2.3055 38.7714 6.0015 8.5104 7.561 8.324 19.1907 8.1375 31.4986-.1526 10.3583-.3052 21.0726 4.645 30.3798 7.1373 13.3929 23.2257 21.5812 49.1977 25.0226 2.0343.2713 4.0856.5256 6.137.7799 16.0206 2.0004 32.5836 4.0687 44.1456 13.4267 10.816 8.7647 15.3594 22.4797 19.7502 35.7539.7968 2.4243 1.5936 4.8486 2.4243 7.222.7629 2.187 1.5766 4.2722 2.4243 6.2896h7.2559c-1.2715-2.7634-2.3565-5.5267-3.289-8.1714-.8137-2.3564-1.6104-4.7299-2.4072-7.1372-4.6452-14.088-9.4768-28.6506-21.7338-38.585-13.0707-10.5956-30.651-12.7825-47.6718-14.9017-2.0344-.2543-4.0687-.5086-6.0692-.7798-23.6155-3.1363-38.0595-10.2227-44.1456-21.632-4.2382-7.9849-4.0857-17.9363-3.95-27.5825.2034-13.0708.4069-26.5993-10.1888-36.0082-11.528-10.2566-28.7861-8.9173-44.01-7.7136-1.6783.1187-3.3566.2543-5.001.373-15.7155 1.085-33.6348-3.3228-35.8726-15.5629-1.068-5.9335 1.9665-11.7314 5.2045-17.8684 2.1022-4.001 4.2722-8.1375 5.442-12.5622C16.2748 86.5054 10.9007 73.0955 0 65.7718v8.307c5.9505 6.137 8.663 15.1051 6.5608 23.073-.9832 3.7805-2.9159 7.4593-4.9502 11.3246-.5425 1.0341-1.085 2.0513-1.6106 3.1024zM124.4858 306.7416h-7.0354c-.373-1.102-.729-2.2208-1.102-3.3398-4.3909-13.274-8.9343-26.9891-19.7503-35.7538-11.562-9.358-28.125-11.4263-44.1455-13.4268-2.0514-.2543-4.1026-.5086-6.137-.7798-22.9205-3.0347-38.1612-9.782-46.3156-20.53V216.043a31.9944 31.9944 0 003.1363 9.6632c6.0861 11.4094 20.5301 18.4957 44.1456 21.632 2.0005.2713 4.0349.5255 6.0691.7798 17.021 2.1192 34.6012 4.306 47.672 14.9017 12.257 9.9345 17.0885 24.497 21.7336 38.585.5765 1.7293 1.136 3.4415 1.7292 5.1368z" fill="#fdba74"/><path fill="#3f3d56" d="M381.4425 25.3219h281.4198v281.4198H381.4425z"/><path d="M517.0665 45.6655a89.8576 89.8576 0 01-135.624 77.3226V25.3218h133.3014a89.3085 89.3085 0 012.3225 20.3437z" fill="#fdba74"/><circle cx="589.9643" cy="101.6103" r="54.2496" fill="#fdba74"/><circle cx="467.9028" cy="216.8907" r="38.9919" fill="#fdba74"/><path d="M662.8622 260.6295v46.1121H607.07a38.995 38.995 0 0155.7923-46.1121z" fill="#fdba74"/><circle cx="566.2301" cy="215.1954" r="10.1718" fill="#fdba74"/><path fill="#3f3d56" d="M764.5802 25.3219H1046v281.4198H764.5802z"/><path d="M901.8995 25.3218v115.2805H764.5802v6.7811h144.1005V25.3219zM1034.3533 306.7416L1046 290.1786v-11.7824l-19.9367 28.3454zm-47.299-121.3496l-62.404 88.749 46.3666 32.6006h11.7822l-48.7059-34.245 54.6057-77.6617L1046 235.1322v-8.29zM883.2512 174.1522l-35.9573 35.9573 35.9573 35.9573 35.9574-35.9572zm-26.3789 35.9573l26.379-26.3788 26.3788 26.3788-26.3789 26.3789z" fill="#fdba74"/><circle cx="137.9341" cy="25.5434" r="25.5434" fill="#f2f2f2"/><circle cx="532.5788" cy="25.5434" r="25.5434" fill="#f2f2f2"/><circle cx="909.3431" cy="25.5434" r="25.5434" fill="#f2f2f2"/><circle cx="506.3968" cy="150.0672" r="24.2662" fill="#ffb8b8"/><path d="M493.6251 161.5617s6.3859 33.2063 3.8315 39.5921 35.7607-2.5543 35.7607-2.5543-7.663-33.2063-6.3858-40.8693-33.2064 3.8315-33.2064 3.8315zM451.479 276.507l2.554 34.483 12.677 54.156 3.926 14.811 6.386-22.989-6.386-52.364-2.169-23.575-16.988-4.522zM585.5812 271.398v35.7607s-3.8315 45.978-11.4945 57.4726-10.2173-45.978-10.2173-45.978l6.0047-42.1466z" fill="#ffb8b8"/><path d="M471.9133 382.5116s-6.3858 7.663-1.2772 85.5702-2.5543 134.1026 14.0489 134.1026c0 0-5.1087 16.6032 8.9402 17.8803s20.4346 2.5544 21.7118-1.2771 3.8315-21.7119 0-21.7119c0 0 0 5.1087 2.5543-15.326s2.5544-117.4994 8.9402-130.271l20.4347 47.2551s0 21.7119 3.8315 31.9292 10.2173 68.967 10.2173 68.967l-1.2772 8.9402s30.652 5.1086 31.9292 0 1.2772-12.7717 0-15.326-1.2771-2.5544 1.2772-7.663 2.5543-8.9402 1.2772-12.7717-1.2772-86.8474-1.2772-86.8474-2.5543-100.8962-17.8803-106.0049-103.4506 2.5544-103.4506 2.5544z" fill="#2f2e41"/><path d="M488.5165 609.8474l-10.2173 17.8803s-15.9646-5.7472-12.7717 8.9402c27.459 1.9157 46.6166-.6386 46.6166-.6386s6.3858 2.5543 7.663-1.2772-3.193-17.2417-7.0244-17.2417-24.2662-7.663-24.2662-7.663zM562.5922 604.7387s-10.2174 22.989-6.3859 24.2662 38.315 6.3858 40.8694 7.663 15.326 2.5543 16.6032-5.1087-6.3859-10.2173-6.3859-10.2173-14.0488-2.5544-17.8803-15.326-26.8205-1.2772-26.8205-1.2772z" fill="#2f2e41"/><path d="M535.7717 194.768s-34.4835-6.3858-42.1466 0-39.5921 19.1575-39.5921 25.5434 16.6032 68.967 16.6032 68.967-8.9402 94.5103 0 97.0647 24.2662-5.1087 42.1465 3.8315 68.967-7.663 68.967-7.663-19.1575-81.7387-14.0488-97.0647 8.9401-67.6899 8.9401-67.6899-21.7118-22.989-40.8693-22.989z" fill="#8985a8"/><path d="M462.9731 216.4798l-8.9401 2.5544s-19.1575 60.0268-11.4945 62.5812 29.3748 7.663 31.9291 7.663-11.4945-72.7986-11.4945-72.7986zM556.2064 210.094l20.4346 7.663s26.8205 49.8096 20.4347 56.1954-34.4835 12.7717-34.4835 12.7717z" fill="#8985a8"/><path d="M505.6598 120.095a13.7157 13.7157 0 00-6.0702.268 15.8276 15.8276 0 00-4.314 2.8298 50.4916 50.4916 0 01-7.3758 4.8867c-2.0696 1.1235-4.2942 2.1634-5.739 4.023a12.2113 12.2113 0 00-1.6198 3.066 36.7403 36.7403 0 00-1.9317 19.996 9.191 9.191 0 00.8507 2.7456c1.3274 2.4457 4.2592 3.4095 6.729 4.6915 4.689 2.434 8.2434 6.5327 12.0893 10.155a23.6337 23.6337 0 004.7765 3.681c5.4867 2.9915 12.193 2.0156 18.3521.9578a3.3073 3.3073 0 003.3008-3.3389l4.8615-21.8657a35.6731 35.6731 0 001.246-9.9445c-.3391-5.308-3.2127-12.6606-7.1082-16.431-4.539-4.3932-12.1141-5.0922-18.0472-5.7204z" fill="#2f2e41"/><circle cx="341.3101" cy="607.9689" r="10.0786" fill="#fdba74"/><path d="M341.3101 637.0849a29.116 29.116 0 1129.116-29.116 29.1486 29.1486 0 01-29.116 29.116zm0-55.9923a26.8763 26.8763 0 1026.8763 26.8763 26.907 26.907 0 00-26.8763-26.8763z" fill="#2f2e41"/><circle cx="831.7423" cy="609.2461" r="10.0786" fill="#fdba74"/><path d="M831.7423 638.362a29.116 29.116 0 1129.116-29.116 29.1486 29.1486 0 01-29.116 29.116zm0-55.9922a26.8763 26.8763 0 1026.8763 26.8763 26.907 26.907 0 00-26.8763-26.8763z" fill="#2f2e41"/><circle cx="831.7423" cy="553.0507" r="10.0786" fill="#fdba74"/><path d="M831.7423 582.1667a29.116 29.116 0 1129.116-29.116 29.1486 29.1486 0 01-29.116 29.116zm0-55.9923a26.8763 26.8763 0 1026.8763 26.8763 26.907 26.907 0 00-26.8763-26.8763z" fill="#2f2e41"/></svg>