<svg data-name="Layer 1" xmlns="http://www.w3.org/2000/svg" width="738.22" height="400.9017"><path d="M296.31 388.6599v-67.8882h-22v67.8882a13.9829 13.9829 0 00-7 12.1118h36a13.9829 13.9829 0 00-7-12.1118zM355.31 388.6599v-67.8882h-22v67.8882a13.9829 13.9829 0 00-7 12.1118h36a13.9829 13.9829 0 00-7-12.1118z" fill="#fdba74"/><circle cx="314.3336" cy="238.5489" r="145.4511" fill="#fdba74"/><ellipse cx="314.3336" cy="311.4361" rx="57.6316" ry="19.2105" fill="#fff"/><circle cx="262.1908" cy="205.6165" r="24.6992" fill="#fff"/><circle cx="366.4765" cy="205.6165" r="24.6992" fill="#fff"/><circle cx="262.6795" cy="205.3158" r="19.2105" fill="#3f3d56"/><circle cx="366.7321" cy="205.3158" r="19.2105" fill="#3f3d56"/><ellipse cx="314.3336" cy="87.0977" rx="96.0526" ry="74.0977" fill="#3f3d56"/><ellipse cx="314.3336" cy="18" rx="38" ry="18" fill="#3f3d56"/><path d="M315.3943 259.7552c6.323-6.4063 16.0471-6.5342 24.256-4.4246 9.786 2.5149 18.116 8.5742 27.178 12.7985a49.5555 49.5555 0 0014.5802 4.5478 38.2794 38.2794 0 0036.6387-17.0858 38.7584 38.7584 0 004.5422-30.9172 1.5013 1.5013 0 00-2.8929.7975 35.707 35.707 0 01-3.3441 27.1126 35.2967 35.2967 0 01-35.3042 17.0384 49.6265 49.6265 0 01-14.2289-4.8121c-8.7614-4.2897-16.9846-10.0042-26.5493-12.4175-9.2141-2.3248-19.9481-1.9008-26.997 5.241-1.3575 1.3755.7624 3.4981 2.1213 2.1214z" fill="#3f3d56"/><path d="M315.3943 257.6338c-6.2293-6.3114-15.3898-7.3698-23.7703-5.9268-9.6154 1.6557-17.8867 6.8887-26.379 11.3699-8.6772 4.5788-17.9282 8.0819-27.8912 6.4858a35.209 35.209 0 01-23.175-14.039 35.7765 35.7765 0 01-5.208-30.0523 1.5013 1.5013 0 00-2.893-.7975 38.8089 38.8089 0 002.823 27.8901 37.4723 37.4723 0 0020.9786 18.1838c9.4141 3.348 19.3507 2.63 28.521-1.1161 9.4261-3.8507 17.775-10.1366 27.4564-13.3683 8.937-2.9832 20.2603-3.7584 27.4162 3.4918 1.3583 1.3762 3.4794-.7453 2.1213-2.1213z" fill="#3f3d56"/><circle cx="314.3637" cy="258.5" r="11" fill="#3f3d56"/><circle cx="254.31" cy="198.7716" r="4" fill="#fff"/><circle cx="376.31" cy="198.7716" r="4" fill="#fff"/><path d="M55.3547 355.6954a158.394 158.394 0 007.399 43.7852c.1031.329.2111.653.3191.982h27.6125a56.5037 56.5037 0 01-.0884-.982c-1.8411-21.166-12.456-149.988.2357-172.018-1.1096 1.787-37.6185 60.979-35.4779 128.2328z" fill="#e6e6e6"/><path d="M57.4266 399.4806c.2308.329.4714.6579.7169.982h20.7142c-.1571-.28-.3388-.6089-.5499-.982-3.4221-6.1765-13.5509-24.642-22.953-43.7852-10.1043-20.5718-19.374-41.9243-18.5933-49.6523-.2406 1.743-7.232 54.8763 20.6651 93.4375z" fill="#e6e6e6"/><path fill="#3f3d56" d="M0 398.9017h738.22v2H0z"/><path d="M683.31 399.7717l-58-38.6811V61.7716a2 2 0 00-2-2h-3a2 2 0 00-2 2V359.765l-59.9876 40.0068 7.6707-.0985 52.317-35.0877v35.1862h7v-33.8532l50.3294 33.7547z" fill="#3f3d56"/><path d="M520.3102 90.7716a2.0023 2.0023 0 00-2 2v180.0005a2.0026 2.0026 0 002 2h203a2.0026 2.0026 0 002-2V92.7716a2.0023 2.0023 0 00-2-2z" fill="#e6e6e6"/><path d="M610.4809 88.7717a3.0062 3.0062 0 002.8291 2h18a3.0062 3.0062 0 002.8291-2zM569.4809 276.7717h105.6582a3.0062 3.0062 0 00-2.8291-2h-100a3.0062 3.0062 0 00-2.8291 2z" fill="#3f3d56"/><circle cx="573.4404" cy="154.5673" r="27.8348" fill="#fdba74" opacity=".3"/><circle cx="638.2349" cy="185.2871" r="27.8348" fill="#fdba74" opacity=".3"/><circle cx="601.5017" cy="186.659" r="40.0821" fill="#fdba74" opacity=".3"/><circle cx="589.3565" cy="201.2189" r="40.0821" fill="#fdba74" opacity=".3"/><circle cx="662.9248" cy="212.9489" r="40.0821" fill="#fdba74" opacity=".3"/><circle cx="650.2704" cy="155.1401" r="40.0821" fill="#fdba74" opacity=".3"/></svg>