<svg xmlns="http://www.w3.org/2000/svg" width="753.1786" height="216.5332" viewBox="0 0 199.2785 57.2911"><g font-weight="400"><path style="line-height:1.25;-inkscape-font-specification:'Impact, Normal';font-variant-ligatures:normal;font-variant-caps:normal;font-variant-numeric:normal;font-variant-east-asian:normal" d="M27.896 0l-9.8852.1524-11.1001.012L5.519 11.9764 3.87 24.8724 1.5958 40.966 0 55.705l7.2781.1649 7.4497-.139.9333-9.9441 5.0208-.006.692 9.9306 8.0713.2445 6.8668.0289-1.7343-12.0753-2.9708-19.0644-2.0552-12.2634zM14.9397 4.192c.0148.0946-.0006.1943-.06.2904-.277.4481-.9164.3743-1.109-.1276a.495.495 0 01-.032-.1597c.4192-.0007.8688-.0011 1.201-.0031zm1.741.3147c.8947 0 1.7115.6028 1.7115 1.263 0 .8156-.4451.906-1.3483.2733-.6174-.4324-.8784-1.5363-.3633-1.5363zm5.0229.3912c.388.021.9219.4199.9219.7726 0 .3564-.3775.3049-.9762-.1329-.3745-.2737-.4258-.4384-.183-.5885.0657-.0406.1477-.056.2373-.0512zm-9.6981 1.127c.0217.026.04.047.063.075.7525.9199.8189 1.2585.3406 1.7368-.261.261-.3984.3564-.631.2574.0766-.6782.1521-1.374.2274-2.0691zm2.1533.1752c.1552 0 .2827.127.2827.2822a.2834.2834 0 01-.2827.2821.283.283 0 01-.2821-.2821.283.283 0 01.2821-.2822zm6.7738.2822c.1552 0 .2821.1904.2821.4232 0 .2329-.127.4238-.2821.4238-.1553 0-.2827-.191-.2827-.4238s.1274-.4232.2827-.4232zm-1.4273 1.4795c.2858-.037.5126.3906.6795 1.2831.1365.73.069.9602-.3157 1.079-.269.083-.7093.269-.9788.413-.0414.022-.0756.0366-.1142.0557a32.4916 32.4916 0 00-.3297-1.249c.1348-.062.2284-.1846.2284-.326 0-.2032.1817-.616.4041-.9173.1543-.209.2965-.3217.4264-.3385zm-4.7036.0558c.1184-.0164.2853.0508.5524.1938.3516.1881.7027.3155.7803.2832.313-.1306.3027 1.1515-.0124 1.5311-.2633.3174-.2595.5973.017 1.265.2509.6056.5854.9933 1.0367 1.182-.2125.8213-.4134 1.6918-.6051 2.5972a4.001 4.001 0 01-.3256-.1147c-.611-.247-1.0724-1.6346-.7891-2.373.084-.2189.017-.482-.1488-.5845-.1658-.1025-.3013-.725-.3013-1.3834 0-.6583-.144-1.3409-.3199-1.5167-.1758-.1758-.2411-.5241-.1452-.774.0729-.19.1426-.2897.261-.306zm7.7907.0067c.1848-.0203.3922.0447.7023.186.9916.4518.9354.9848-.1752 1.662-1.0055.613-1.1556.652-1.4345.373-.369-.3688-.1797-1.4255.3395-1.8954.2206-.1997.3831-.3053.568-.3256zm-4.5832 1.664a26.413 26.413 0 00-.1777.5245c.0116-.2393.0737-.4208.1777-.5245zm-5.2043 2.22a.5295.5295 0 01.094.0015c.1537.0159.3268.0955.5752.2284 1.2682.6787 1.3895 1.3029.4382 2.2541-.9688.969-.8074.9335-1.7993.3954-.986-.535-1.015-1.4916-.0719-2.3777.3504-.3291.5483-.4855.7638-.5017zm9.3002.2904c.1179-.0055.2682.0132.4501.0579 1.0876.2674 2.102.9722 1.9715 1.37-.2065.6292-1.468.5316-2.1219-.1644-.7173-.7635-.8105-1.2397-.2997-1.2635zm-2.9471.3338c.3228.042.6076.1705.8976.398.7696.604.592 1.172-.3664 1.172-.071 0-.1494.0127-.2304.0315a59.5531 59.5531 0 00-.3008-1.6015zm-.9488.0734c.3861 4.8742.818 9.2932 1.204 13.346.3456 3.627.4457 6.7291.7913 9.6981l-5.0855.3452c.188-2.527.8576-5.743 1.3358-9.7761.4518-3.8095 1.0437-8.4604 1.7544-13.6132zm-4.9072 5.515a.5218.5218 0 01.2972.0764c.3156.1951.1084.7028-.2868.7028-.137 0-.322-.118-.4114-.2625-.1565-.2533.1029-.5048.401-.5168zm-1.8081 1.5063c.298-.013.494.3154.2661.6842-.216.3494-.621.3651-.8268.032-.0851-.1376.023-.3978.2403-.5782.11-.0913.221-.1337.3204-.138zm-.4574 2.5807c.2282-.0227.3259.166.541.6522.32.7227.2778.9536-.3942 2.1642-1.1239 2.0245-1.4477 2.3407-1.9162 1.8722-.0148-.0148-.0272-.0324-.0403-.049a456.96 456.96 0 00.2651-1.6878c.0544-.0755.1118-.1495.1757-.2176.4747-.5053.5293-.7371.2822-1.1989-.0798-.149-.1378-.2652-.1835-.3684.029-.1921.058-.3847.0868-.5772.1207-.096.3031-.1967.5783-.339.2842-.147.4682-.237.6051-.2507zm15.1407 6.0053c.4984 0 .4112.608-.1121.7824-.1844.0614-.3349-.0896-.3349-.3354 0-.2457.2012-.447.447-.447zm-13.9764.0672c1.17-.0164 1.1166.9697-.3731 1.4806-.5985.2052-1.13.2535-1.218.111-.3266-.5283.2188-1.3438 1.0154-1.5187.2165-.0476.4086-.0705.5757-.0729zm9.6733 2.4898a.4974.4974 0 01.1721.0253c.2202.0734.1978.2678-.0734.6387-.1519.2078-.2665.3177-.3648.3396-.035-.278-.0684-.5592-.1023-.8398.102-.094.2294-.1598.3684-.1638zm-12.9744.6454c.0257.004.0561.0474.09.1318.0814.2038.0715.4468-.0223.5405-.0938.0938-.1605-.0725-.1483-.37.0085-.2054.0379-.3087.0806-.3023zm1.4237.1845c.6033 0 .8334.5244.4387 1-.4026.485-.7334.5238-.986.1152-.2678-.4334.0668-1.1152.5473-1.1152zm14.131.1489c.1314-.004.2742.088.4288.2744.2475.2981.2775.541.0894.7291-.1881.1881-.4062.1333-.6537-.1648-.2474-.2982-.277-.5415-.0889-.7297.0706-.0705.1454-.1069.2243-.109zm-14.3868 2.0505c2.8456.007 3.0973.0533 3.544.6454.0345.0458.0692.0853.1038.125a209.0928 209.0928 0 01-.3157 2.3942c-.5177.008-.4566.2921.2196 1.0119.4747.5053.5293.7371.2822 1.1989-.4183.7815-.398.8393.3286.9436.4688.0673.6176.2574.568.7255-.037.3488.0667.634.2304.634s.2574.3494.2083.7763c-.1267 1.101-1.0144 1.134-2.1932.0816-.5521-.493-1.2758-.8579-1.7006-.8579-.4067 0-.8603-.1108-1.0077-.2465-.1475-.1356-.7918-.3123-1.4325-.3922-1.0373-.1294-1.1499-.0865-1.0258.388.207.7915-.6044.6693-1.047-.1575-.0098-.0184-.0213-.0332-.0314-.0512.301-1.671.5882-3.2987.8712-4.913.5366-.2295.7503-.19 1.1643.1846.6454.584.6799 1.1963.0806 1.4263-.3599.138-.3733.2176-.0703.4097.5647.358.7195.3028.8811-.3152.1204-.4605.3041-.5316 1.0113-.3901.7456.149.9121.0679 1.2129-.5922.3143-.69.2805-.8175-.3437-1.2971-.7538-.5794-1.5502-.7004-1.8128-.2755-.1209.1956-1.1134.2398-2.005.1814.0931-.534.1882-1.0753.2795-1.6056.4753-.0266 1.106-.0349 2-.0326zm14.5185 1.1291c.2779-.0145.4387.1056.4387.3364 0 .5096-.8584.7246-1.1312.2832-.2403-.3888-.1543-.4808.5664-.6051a1.008 1.008 0 01.126-.0145zm1.5126 2.0784c.3846.002.7813.2578.6206.5178-.2206.357-.9029.3704-1.1183.0217-.0893-.1445-.0272-.3464.138-.4485.1044-.0645.2315-.0918.3597-.091zm-9.3023.413c-.1272.1943.0578.3547.6821.8433.715.5596.9142.9276.9142 1.6857 0 .906.0384.9462.5819.6144.4803-.2933.6407-.2814.9208.0682.1866.2328.7187.6365 1.1824.897.4637.2606.8827.73.9312 1.043.0707.4566-.1476.6323-1.1059.8903-.8715.2347-1.3774.2376-1.8733.012-.7832-.357-1.123-.2154-1.188.529-2.2798.1396-4.3155.5894-4.5501 1.9214-.0912.0837-.1765.1938-.2512.3333-.3914.7313-.3635.9968.2083 1.0423l-.1897 1.8774c-.2518-.2125-.476-.3612-.5772-.3612-.4452 0-.3606.3145.1959.7287.1692.1259.2737.2138.3137.3023l-.0212.2134c-.062.1121-.195.254-.4052.4672-.6583.6674-1.2278.5354-1.2278-.2843 0-.2832-.2539-.5813-.5643-.6625-.884-.2312-.7476-1.4927.2113-1.9523.4269-.2046.7762-.561.7762-.7917 0-.5994-1.1516-.6811-2.2505-.1597-1.0584.5023-2.566.5892-2.8293.1633-.0959-.1552-.4149-.2821-.7085-.2821-.057 0-.1157-.009-.1746-.0217.0904-.4952.1726-.9558.2615-1.4433.1163-.051.1979-.1323.1979-.229 0-.0947-.0474-.1745-.1153-.2258.0377-.207.0742-.4102.1117-.616.1804.1625.4503.318.8593.5313 1.4833.7731 1.7089.752 2.6665-.2476.6017-.628.9711-.7984 1.4635-.6749.5298.133.6589.0523.6589-.4129 0-.719.507-1.0644.9348-.6366.24.24.2314.4647-.034.8899-.1955.3129-.292.6715-.2145.7968.26.4207 2.2033.1232 2.485-.3803.1884-.3366.475-.4309.9483-.3122.5376.135.6785.0594.6785-.3648 0-.2944-.1909-.6935-.4237-.8868-.6024-.4999-.5233-1.1286.1416-1.1286.7525 0 .711-.3281-.1416-1.1291-.388-.3645-.7054-.837-.7054-1.0495 0-.2126-.2224-.349-.494-.3034-.4338.073-.6898-.6468-.6026-1.2738zm2.7952.389c.3305 0 .2487.4112-.1055.5292-.1746.0582-.27-.0372-.2118-.2119.0582-.1746.2009-.3173.3173-.3173zm10.5187 3.5595c.0854-.001.1678.0288.2382.0992.2068.2068.1611.4317-.1519.7447-.318.318-.5065.3553-.6475.127-.2357-.3812.1912-.9665.5612-.971zm1.711 4.3429c.0072 0 .0136.001.0207.002.0504.204.098.4006.1488.6062-.2454.2564-.616.2293-.616-.1613a.4476.4476 0 01.4465-.4464zm.617 2.4154c.127.513.2584 1.0444.3881 1.5678-.5758.3605-1.1683.2988-1.3586-.1969-.1912-.4984.3674-1.1653.9705-1.371zm-2.2097.184c.1125-.004.2301.0403.337.1472.3612.3613.1372 1.204-.3199 1.204-.165 0-.3764-.1985-.4697-.4418-.1765-.4597.1154-.899.4526-.9095zm-5.0446.003c.2054-.013.4625.1015.9488.3322 1.092.5183 1.3273 1.0165.4795 1.0165-.291 0-.911.0763-1.3771.1695-.5245.1049-.9277.0404-1.0573-.1695-.1197-.1936.0385-.5869.3684-.9168.2787-.2786.4323-.4191.6377-.432zM8.109 50.5094c1.0709 0 1.4563.4015.9597.9999-.3917.472-2.1245.556-2.3962.1163-.3159-.511.4631-1.1162 1.4366-1.1162zm20.7254.0202c.124 0 .2481.107.462.3209.577.577.3121 1.3523-.462 1.3523-.3202 0-.659-.2005-.753-.4454-.094-.2449.037-.6528.291-.907.2139-.2138.338-.3208.462-.3208zm2.3136.5989c.4242-.0118.9322.362.9322.819 0 .5628-.835.638-1.2697.1143-.2862-.3449-.295-.524-.0372-.7819.1009-.1008.2333-.1475.3747-.1514zm-6.4622 1.8593c.299-.0125.708.2421 1.1659.816l.311.3901c-.6266.0904-1.269.1138-1.9544.0341-.1004-.773.0979-1.2243.4775-1.2402zm-17.0201.0749c.4485-.002.8962.1276 1.1126.3886.0886.1068.2105.1822.3803.231-.7948-.009-1.3215-.0555-2.6815-.1204a.9637.9637 0 01.0734-.1028c.2178-.2624.6667-.3947 1.1152-.3964zm22.4911.1152c.049.002.0941.008.139.0134-.87.1917-1.6597.4237-2.4283.6295.2497-.1603.6036-.3118 1.076-.4507.4861-.143.8925-.2061 1.2133-.1922zm-18.7373.4558c.117-.004.216-.002.3054.003-.2195.006-.4103.01-.5969.0145a7.2001 7.2001 0 01.2915-.0176zM60.338 9.6573c-1.9232.1267-3.348.732-4.8127 1.8795-1.4433 1.1307-3.0055 2.772-4.0039 4.8937l.7576-5.9278-6.0617.0305-8.1757.1891.495 10.2423-.292 12.5827.0724 8.5261.0285 7.827-.2848 6.5127 14.1857-.247-.1669-8.7576-.1984-8.9524c0-4.412.6862-7.3157.9606-8.5277.2743-1.2343.4385-2.5826 1.6273-3.2685 1.1888-.6858 3.3542-.7225 5.8917-.7225l-.1086-7.601zm-18.2966 2.4603c.127-.001.1987.0018.3142.0015.3393.5036.6276 1.1795.497 1.3906-.198.3204-1.8344.5064-2.0065.228-.1541-.2495.0662-1.0413.353-1.6046.2754-.005.6089-.0136.8423-.0155zm13.4048 2.6779a.3679.3679 0 01.1116.0227c.6906.265.477.877-.4707 1.3498-1.0634.5305-1.0023.525-1.2552.1158-.1265-.2047.1296-.5824.4883-.907.2819-.193.5582-.3714.8237-.526.1102-.0385.2137-.0603.3023-.0553zm-14.7515.1669a.4838.4838 0 01.1028.0005c.1048.0098.2468.0434.434.0904.4261.107.8153.2354.8652.2853.0499.0499.114.8922.142 1.8722.04 1.3971-.0422 1.801-.3792 1.8702-.2964.0609-.5307-.2866-.7556-1.1193-.1793-.6643-.3986-1.6343-.4867-2.1554-.1018-.6015-.1282-.8187.0775-.844zm3.0003 3.7801c.1207-.0014.2442.0169.3586.059.611.2246.383.6335-.353.6335-.388 0-.7053-.116-.7053-.2584 0-.248.3377-.4297.6997-.434zm-2.279.985a.5997.5997 0 01.5416.386c.228.5943-.3097.9853-.7498.5452-.1035-.1035-.188-.3578-.188-.5648 0-.2498.1859-.3708.3963-.3664zm1.8702.8361c.7261 0 1.0673.8248.5132 1.2402-.2289.1716-.5083.5026-.6212.7354-.7959 1.6416-1.3607 2.245-2.1104 2.2536-.279.003-.3209-.2312-.1633-.9131.1166-.5045.2234-1.2346.2377-1.6227.0219-.5955.1466-.6928.7984-.6242.6155.0648.772-.0357.772-.494 0-.39.185-.5752.5736-.5752zm2.9487.7137c.1315-.0036.2743.088.429.2744.2474.2981.277.541.0888.7291-.1882.1881-.4057.1333-.6532-.1648-.2475-.2982-.277-.5415-.0889-.7297.0706-.0706.1454-.1069.2243-.109zm1.662 2.4303c.1343.0145.1826.152.1348.3984-.0536.2766-.2686.56-.4775.6294-.2429.081-.3445-.0549-.2822-.3767.0536-.2766.2682-.5598.477-.6294a.4599.4599 0 01.0848-.0201.2648.2648 0 01.063-.0015zm1.8835 1.5983c.1764.0041.2703.0623.2703.1773 0 .1953-.2539.5851-.5643.8661-.3105.281-.5648.6855-.5648.8992 0 .2136-.222.4667-.4936.5622-.2716.0955-.8332.4864-1.2474.8687-.4143.3823-.8832.6146-1.0423.5162-.1591-.0983-.6261.3959-1.0377 1.0982-.4115.7022-.9265 1.2764-1.1446 1.2764-.2181 0-.3964.1683-.3964.3741 0 .4541-1.1759 1.6015-1.6412 1.6015-.184 0-.3344-.127-.3344-.2822s-.1904-.2821-.4232-.2821-.4238-.1396-.4238-.3101c0-.4253 1.6651-1.9477 2.1302-1.9477.6097 0 .787-.574.2893-.938-.2528-.1848-.488-.7162-.5224-1.1807-.0575-.777.0168-.8503.9255-.9178 2.1166-.1571 2.9097-.3754 2.5766-.7085-.4795-.4795-.3843-.817.2026-.7178.2869.0486.8266-.0513 1.1994-.2222 1.0663-.4886 1.8541-.7418 2.2422-.7328zm-9.0496 2.0242c.2902.0027.2213.3356-.2521.9188.0033-.2884.0073-.579.0118-.8707.095-.0307.178-.0487.2403-.048zm6.9541 7.4352c.1833-.0112.3415.0363.4553.153.2912.2986.1862.5125-.5591 1.141-.5045.4254-.9173.9158-.9173 1.0893 0 .5424-.4841.6444-.8671.183-.3028-.3649-.29-.567.0718-1.1633.4899-.8073 1.2666-1.3695 1.8164-1.403zm.339 4.5512a.1625.1625 0 01.0652.0238c.432.267.3175 1.5435-.1385 1.5435-.2237 0-.4833-.1244-.5773-.2764-.2196-.3554.3097-1.3387.6506-1.291zm-2.589 2.176c.5583-.002.7133.8452.2042 1.4077-.5842.6456-.9149.663-1.1457.0615-.2129-.5548.2317-1.3398.8248-1.4567a.6151.6151 0 01.1168-.0124zm-2.9109.6486c.087-.003.1833.0355.277.1292.221.221.221.3925 0 .6134-.221.221-.3596.221-.496 0-.2203-.3563-.0421-.734.219-.7426zm-.1183 1.9027a.3692.3692 0 01.0878.001c.0677.008.1372.0337.2072.077.3751.2318.383 1.1892.012 1.4185-.1553.096-.2822.7767-.2822 1.5126 0 1.3567-.3518 2.0154-1.077 2.0154-.297 0-.348-.1994-.1974-.7762h.0006c.1115-.4268.2642-1.4368.34-2.2443.1125-1.1996.4737-1.9605.909-2.004zm3.2137.7912c.5205 0 .9678.999 1.153 2.5755.1209 1.03.0465 1.4032-.3525 1.7643-.5442.4925-1.0527.589-1.2676.2413-.0735-.119-.0176-.8361.124-1.5942.1774-.9495.16-1.496-.0558-1.756-.3809-.4589-.1306-1.231.399-1.231zm-5.0059.3777a.548.548 0 01.0708.3943.7127.7127 0 01-.0708.198c.0003-.1983.0003-.3951 0-.5923zm2.0748 5.5671c.2746.0103.6592.2902 1.1969.8279.6211.6211 1.1125.8465 1.8438.8465 1.0173 0 2.3316.9107 2.3414 1.6226.0028.184.23.3347.5137.3499.0054.1679.0084.3633.0145.5234-1.0873.0206-1.848.0118-2.451-.0114-.4091-.3211-.8681-.6338-1.2423-.8247l-1.1235-.5731-.661.6211c-.7732.7265-1.732.5674-1.375-.2284.1212-.2703.274-1.0951.339-1.8324.0796-.9027.2505-1.3347.6035-1.3214zm-1.9363.6217a.2018.2018 0 01.0832.008c.179.062.2865.4812.2393.9317-.1089 1.0382-.1814 1.7973-.2269 2.385-.1584.002-.275 0-.448.003.0556-1.1163.0944-2.1936.1266-3.2542.0859-.0424.1629-.0686.2258-.0739zM72.5392 4.4798l-7.1132.198.1359 3.575.0723 3.6416-3.2943.08-.1845 3.4903.3891 3.3863 2.8546-.045-.2501 6.0256.509 9.5348-.0816 8.0336c0 4.527-.047 6.9263.2046 8.1613.2514 1.211 1.0135 2.4201 2.0422 3.3801 1.0288.937 2.1172 1.6468 3.466 1.9208 1.3488.251 3.3084.4532 6.4632.4532l5.8952.1468-.2816-3.6489.1891-3.9341c-2.2633 0-3.5134-.0668-3.8334-.4098-.2972-.343-.6335-2.0962-.6335-5.0912l.044-8.6981.4133-8.0306-.2956-7.7638 3.7988-.0553-.108-3.004.1343-4.0488-4.0271.3131.496-4.7707-.511-2.7518zm.8661 1.6315c.0586.2192.004.4946-.1705.8774-.2684.5892-.2706.8781-.0083 1.2976.1854.2968.337.9706.337 1.497 0 .6735.1844 1.0797.6216 1.37.5978.397.6085.483.2822 2.2542-.1867 1.0128-.339 3.0575-.339 4.5439 0 1.4972-.1263 2.7802-.2827 2.8768-.1645.1017-.2822 1.6908-.2822 3.81 0 2.3191-.1113 3.7045-.3074 3.8257-.1753.1083-.2399.5706-.1504 1.0749.099.5579.004 1.0876-.2569 1.433-.2276.3013-.4139.897-.4139 1.3239 0 .4268-.113.8459-.2511.9312-.2528.1562-.5702 1.5945-.6785 3.0758-.05.6838.0877.8497.9524 1.1498.9044.3139 1.1032.2873 1.8965-.2563.4875-.334 1.1532-.947 1.4795-1.3617a5.3759 5.3759 0 01.2511-.2982c.0102 1.0224.028 2.0692.062 3.145-.039.0386-.072.0762-.0899.1112-.1072.209-.2672.612-.3555.895-.2175.6971-1.1271.487-1.2377-.2858-.1048-.7327-.8598-1.4375-1.1332-1.0578-.1046.1452-.698.542-1.3188.8816-.7912.4327-1.156.8337-1.2185 1.3405-.1133.917-1.2536 1.0202-1.6583.2155-.0695-.7763-.1384-1.5571-.2083-2.3404.4087-.3487.6867-.809.692-1.262.003-.3004.2545-.864.558-1.2521.337-.4307.5543-1.1508.5582-1.8485.003-.6286.1246-1.2638.2692-1.4112.1446-.1475.3319-1.4111.416-2.8081.229-3.8043.6553-8.3455.8831-9.4067.125-.5822.0704-1.1866-.1441-1.5875-.2574-.4808-.2667-.7967-.0357-1.2283.3765-.7035.4271-9.1851.059-9.8796-.0713-.1343-.1353-.7285-.1892-1.5673.5203-.0279 1.017-.0538 1.4123-.0785zM71.39 43.265c.4841 0 1.1755 1.2523.9198 1.666-.2758.4462-.5674.3837-1.1359-.2444-.5385-.5951-.413-1.4216.216-1.4216zM122.4706.5271l-8.369.1375-11.3998-.0801.355 6.7778-.0651 4.6835 6.1009-.1535 3.991-.0925-3.0138 7.8243-3.4323 12.065-2.0676 7.292-2.651 9.4692-.339 7.476 6.3117.307 11.4691.0568 8.708-.197.261-4.6058-.1871-6.6622-5.2948.152-5.1671.2873 1.5338-5.7774 4.0292-11.2448 2.558-8.1592 2.423-8.0585.1308-5.4554-.214-5.8415zm-13.899 1.0692c.381.0097.801.021 1.1623.03-.0424.1918-.1193.4044-.2403.6304-.3445.6437-.792.708-1.0082.1447-.085-.2214-.034-.5237.0863-.8051zm-1.0092 2.8996c.4067 0 .2806 1.0325-.172 1.4081-.3404.2825-.4538.2616-.5964-.11-.1784-.465.3148-1.2981.7684-1.2981zm5.8824 2.8892a.5206.5206 0 01.2966.077c.3156.195.1084.7028-.2868.7028-.137 0-.322-.1185-.4114-.263-.1565-.2533.1034-.5049.4016-.5168zm2.6716.2155c.4257 0 1.5715 1.4203 1.5715 1.9482 0 .5987-.8146.2997-1.3916-.5106-.6837-.96-.7436-1.4376-.1799-1.4376zm5.4659.8842a.1732.1732 0 01.0568.0093c.1552.0517.2821.221.2821.3762 0 .1552-.127.3244-.2821.3762-.1553.0517-.2822-.1175-.2822-.3762 0-.2264.097-.3843.2253-.3855zm-9.3659.0702c.0337-.0015.0707.0091.1096.0331.1552.0959.2821.2937.2821.4398 0 .146-.127.2656-.2821.2656-.1552 0-.2822-.1978-.2822-.4398 0-.1815.0714-.2942.1726-.2987zm6.6006.7385a.283.283 0 01.2822.2821.2834.2834 0 01-.2822.2827.2834.2834 0 01-.2821-.2827.283.283 0 01.2821-.2821zm-10.6308.1287c.087-.0028.1833.0355.277.1292.2209.2209.2209.393 0 .6139-.221.221-.3601.221-.4966 0-.2202-.3563-.0415-.7346.2196-.7431zm8.6852 2.4112c.3845 0 1.1705.7932 1.0511 1.0609-.0513.115-.3746-.0766-.7183-.4258-.3437-.3493-.4935-.6351-.3328-.6351zm5.3222 1.4784a.5206.5206 0 01.2966.077c.3156.1951.1085.7028-.2868.7028-.1369 0-.3215-.1185-.4108-.263-.1566-.2533.1029-.5048.401-.5168zm-6.3562 7.3154c.5437-.011.657.6478 0 1.586-.5591.7981-1.1603.802-1.4118.0097-.1436-.4525-.0272-.7543.4356-1.1291.393-.3183.729-.4617.9762-.4667zm5.227 2.8448a.5223.5223 0 01.2972.077c.3156.195.1084.7027-.2868.7027-.137 0-.322-.1185-.4113-.263-.1566-.2533.1028-.5048.401-.5167zm-3.4902 3.884c.6313 0 .7518.5797.2388 1.1467-.5477.6052-1.1223.7058-1.4061.2464-.2204-.3565.6484-1.3931 1.1673-1.3931zm-2.8933.2821c.576 0 1.4045 1.0507 1.216 1.542-.1681.4379-1.0594.5933-1.4072.2455-.3533-.3533-.2-1.7875.1912-1.7875zm-3.8468 3.1347c.2238.0046.4997.1468.7948.4418.2893.2894.8193.467 1.2562.4212.852-.0894 1.5646.571 1.3157 1.2196-.1031.2688-.5308.4273-1.154.4273-.5443 0-1.4053.2534-1.9135.5633-.889.542-1.6299.7304-1.6299.4144 0-.083.1998-.4558.4439-.8283.2463-.376.4035-1.09.353-1.6046-.0675-.6874.1608-1.0623.5338-1.0547zm5.0286 1.9451c.8314 0 1.1955.669.6935 1.2738-.4668.5625-.7658.5288-1.1162-.126-.4575-.8549-.3494-1.1478.4227-1.1478zm-6.9334 2.7378c.215.1592.3172.4523.2454.8305-.0422.2222-.278.4056-.5653.5209.107-.4487.2141-.8981.3199-1.3514zm6.692 1.2542c.6256-.0219.901.8304.1618 1.6066-.2716.2853-.634.7616-.8051 1.0584-.364.6316-1.1768.7972-1.8758.3819-.2717-.1614-.494-.4557-.494-.6538 0-.3955 1.1624-1.587 1.5482-1.587.133 0 .4691-.2061.7472-.4578.2617-.2368.5093-.341.7178-.3483zm-5.3123.2832c.0358.0007.073.004.1117.009.3492.0496.635.2788.635.5095 0 .4484-.743.719-1.0717.3902-.4166-.4167-.2113-.92.325-.909zm7.195 2.3337c-.0711.2538-.142.5083-.213.7617-.0108-.0137-.0227-.0267-.032-.0419-.1096-.1773-.0662-.4552.0961-.6175a.5235.5235 0 01.1489-.1023zm-9.6057.3674c.185.1037.1322.2272-.1395.538.0466-.1791.0934-.3577.1395-.538zm3.4768.4098c.4179.028.7584.425.5426.7741-.277.4481-.9163.3743-1.109-.1276-.0964-.2515.0173-.5042.2708-.6015a.6938.6938 0 01.2956-.045zm2.3436.7984c.8947 0 1.7115.6028 1.7115 1.263 0 .8156-.4451.906-1.3483.2734-.6174-.4325-.8784-1.5364-.3632-1.5364zm-5.394.958c.2264.0146.4286.2034.7818.6352.7525.92.8189 1.2585.3406 1.7368-.4396.4396-.5232.4247-1.3152-.235-.3664-.3054-.8868-.555-1.156-.555a.5426.5426 0 01-.1013-.011c.1217-.4143.2428-.8305.3607-1.2537.19.013.3808-.0425.618-.1695.1912-.1023.3355-.1564.4714-.1478zm2.8721.7355a.283.283 0 01.2822.2821.283.283 0 01-.2822.2822.283.283 0 01-.2821-.2822.283.283 0 01.2821-.2821zm.6429 1.8174c.1184-.0164.2853.0508.5524.1938.3516.1881.7027.3155.7803.2832.313-.1306.3027 1.151-.0124 1.5306-.2633.3174-.26.5978.0165 1.2656.4473 1.0799 1.1614 1.4686 2.328 1.2671.6473-.1118 1.1103-.003 1.5891.3726.7696.604.592 1.172-.3664 1.172-.3548 0-.875.2539-1.156.5643-.5373.5937-1.2958.6894-2.2882.2884-.611-.247-1.0725-1.6351-.7891-2.3735.084-.2189.0169-.4815-.1488-.584-.1658-.1025-.3013-.725-.3013-1.3833 0-.6584-.144-1.341-.3199-1.5167-.1758-.1759-.2411-.5242-.1452-.7742.0729-.1899.1426-.2895.261-.3059zm4.0525.6584c-.1385.4927-.28.9968-.4176 1.4867-.18.3152-.2855.5794-.3323.8036-.1961-.051-.2764-.2692-.2764-.6739 0-.439.1598-.7054.4232-.7054.2328 0 .4232-.1663.4232-.3695 0-.1255.0742-.3316.1799-.5415zm-6.0498 3.2323a.4944.4944 0 01.094.002c.1536.016.3273.0954.5757.2284 1.2681.6787 1.3895 1.303.4382 2.2542-.9689.9688-.8075.9334-1.7994.3953-.9859-.5349-1.015-1.4916-.0718-2.3776.3504-.3292.5478-.4856.7633-.5018zm9.3007.2905c.118-.005.2682.013.4501.0579 1.0876.2673 2.1015.9721 1.971 1.3699-.2065.6293-1.4675.5316-2.1213-.1643-.7174-.7635-.8106-1.2398-.2998-1.2635zm-11.9946.1167c.2956-.0148.3793.3348.3793 1.1281 0 .9876-.2266 1.0979-1.3405.6501-.8436-.339-.8004-.6819.1731-1.375.3571-.2543.6108-.3943.7881-.4032zm18.3038.2801c.5119-.01.5612.1429.5612.9188 0 1.2653-.44 1.3678-1.2382.2884-.7367-.9965-.6944-1.1147.428-1.1948.0931-.007.1759-.011.249-.0124zm-21.161.801c.756.3801 1.827 1.5026 1.679 1.8883-.1558.4059-1.341.5007-2.2314.3183.1296-.8016.3185-1.5185.5524-2.2066zm21.7537 4.439c.2027-.009.4267.0494.6398.1866.0226.0145.041.0299.0605.045-.0201.2196-.0376.3988-.06.6635-.1024.0619-.2325.1104-.3875.139a40.9212 40.9212 0 00-.9265-.1891c-.0273-.0707-.0315-.1582-.01-.2708.0678-.3523.3459-.5584.6836-.5741zM146.2645 9.957c-3.178 0-5.5716.847-8.0176 2.0815-2.446 1.2116-4.5283 2.6168-5.6033 4.9258-1.074 2.2861-1.263 5.559-1.263 9.537l-.34 6.2802.4082 6.8745c0 3.383.0368 6.2682.5168 8.0512.48 1.76 1.2082 3.246 2.4422 4.732 1.258 1.463 3.3809 2.2913 5.6209 3.1373 2.241.845 4.5278 1.7146 7.4548 1.7146 3.017 0 5.6591-.4258 7.6481-1.2718 2.012-.869 3.7753-2.4372 5.0783-4.1522 1.303-1.714 1.6708-3.2881 2.0138-4.7971.365-1.509.8671-3.3866.8671-6.1986l.151-3.486-6.24-.3034-7.3882.2971.028 5.8643c0 2.263-.0449 3.8679-.411 4.6679-.343.777-.877.9302-1.929.9302-.846 0-1.7458.1397-2.0438-.4553-.297-.594-.3431-2.168-.3431-4.225l.078-9.8729 7.4419-.1281 5.9599-.1659 4.7609-.003.1044-5.564c0-4.4122-.464-7.9673-1.493-10.3906-1.006-2.446-3.3313-4.288-5.8683-5.751-2.515-1.486-5.748-2.3286-9.634-2.3286zm.7632 8.0853c.777 0 1.6078.3328 1.8588 1.0186.252.6858.4072 2.3716.4072 4.7263l-.05 2.8567-4.298.4506.2537-3.836c0-2.5604.2253-3.853.4533-4.4245.229-.5943.415-.7917 1.375-.7917zm-3.3853 1.6221c.2328 0 .4238.127.4238.2822s-.191.2821-.4238.2821-.4232-.1269-.4232-.2821.1904-.2822.4232-.2822zm-2.1115.386c.1272-.008.2306.0083.3018.0523.4245.2623-.2723 1.2547-.881 1.2547-.305 0-.5546.1236-.5546.2749 0 .4213-1.6005 1.1543-2.1011.9622-.2439-.0936-.7555.0343-1.137.2842-.8403.5507-1.277.5792-1.2774.0842v-.0005c.0006-.2038.3886-.6574.863-1.0082.6508-.4811.956-.5618 1.2387-.327.2843.2359.578.1402 1.2139-.3949.7823-.6582 1.7826-1.1472 2.3337-1.1818zm-6.4564 4.4866c.2804.0325.4842.4393.6583 1.2656.1987.9427.0534 1.2473-.2356.494-.0894-.2328-.3433-.4232-.5643-.4232-.5881 0-.7783-.7498-.2925-1.153.1633-.1355.3066-.1982.434-.1834zm-.7798 3.0298c.57 0 1.0588.7048.8557 1.234-.1868.4868-.6493.573-.9286.2558.0155-.5003.0285-.992.0388-1.4841.012-.001.0215-.0057.034-.0057zm19.3667 0a.283.283 0 01.2822.2821.283.283 0 01-.2822.2822.283.283 0 01-.2821-.2822.283.283 0 01.2821-.2821zm4.9222.5643c.242 0 .4403.127.4403.2822s-.1195.2821-.2656.2821c-.146 0-.3444-.127-.4403-.2821-.096-.1553.0237-.2822.2656-.2822zm-8.1442.847c.4984 0 .4117.6074-.1116.7818-.1843.0614-.3354-.0891-.3354-.3348 0-.2458.2012-.447.447-.447zm-14.6999.846c.7653 0 .7562.6226-.0212 1.434-.9065.9462-1.248 1.0342-1.248.3219 0-.6726.7831-1.756 1.2692-1.756zm15.368 1.1642c.1524-.0038.3105.0183.4554.0739.5655.217.254.7374-.4414.7374-.292 0-.6102-.1279-.7069-.2842-.1681-.272.236-.5158.693-.5271zm-8.5415 5.8911c.1496 0 .2753.092.3762.261a49.305 49.305 0 00-.2429 2.5719c-.6138.1067-2.3265 1.1727-2.835 1.7854-.4886.5888-.8482.5868-1.0759-.007-.1191-.3104.074-.6707.5731-1.0686.4142-.3303.7535-.7925.7535-1.0269 0-.4848 1.9787-2.516 2.451-2.516zm-4.1967 5.3625c.515 0 .396.9854-.1819 1.5084-.6193.5605-1.4593.6141-1.4593.093 0-.4541 1.1759-1.6014 1.6412-1.6014zm-2.2117 2.2722c.1369.0204.2515.1298.4057.3374.2016.2717.5114.494.6883.494.6112 0 .3194.5037-.3959.6832-1.1685.2933-1.159.9398.0315 2.159 1.164 1.192 1.9027 1.3727 2.6914.659.458-.4145.526-.4034.866.141.203.325.5778.5912.833.5912.2553 0 .6786.3273.9406.727.4194.6403.6053.7048 1.559.5437.9162-.1548 1.1098-.098 1.2574.367.1298.409.5333.5973 1.5776.7358.975.1293 1.4036.3147 1.4036.6082 0 .5852-.7656.8236-1.2785.398-.2843-.236-.9007-.2966-1.864-.1825-1.207.143-1.6436.0568-2.7052-.5359-.9006-.5028-1.3666-.623-1.6154-.4165-.1925.1597-.4338.2065-.536.1044-.3286-.3286-.198-.6558.2616-.6558.2457 0 .4041-.127.3524-.2821-.0517-.1553-.189-.2827-.3054-.2827h-.9173c-.9867 0-.9234.8677.141 1.9322.4658.4657.8466 1.0324.8466 1.2593 0 .1252.041.247.11.3628-.8593-.3797-1.7855-.8247-2.824-1.355-1.8363-2.303-2.6314-5.0057-3-7.8486.2256-.0132.6337-.1623.9375-.3477.2429-.1483.4016-.2169.5385-.1964zm16.0869 1.4335c.4698-.002.8526.2597.8526.6604 0 .5424-.5717.5552-1.2867.029-.5106-.3758-.514-.4164-.0537-.5949.165-.064.3312-.0939.4878-.0946zm-.5266 2.5321c.1364.0276.2787.1985.5385.5349.3672.4758.5466 1.1616.5508 2.1063.006 1.3243.0326 1.3745.491.9162.4149-.415.4358-.615.1436-1.389-.2319-.6144-.2492-.9968-.0537-1.1922.44-.44 1.2448.1957 1.3488 1.0656.1263 1.0568 1.0566 1.6241 2.3295 1.4206.2717-.0435.495-.0603.675-.0568-.8538.7554-2.0441 1.401-3.7321 1.9823-4.9904 1.9543-7.5078 2.5194-11.2882 1.2665a2.7196 2.7196 0 00.2454-.0253c.604-.0923 1.6379-.2444 2.2976-.338.6597-.0934 1.3201-.2839 1.4676-.4231.1474-.1394.6466-.2533 1.109-.2533.952 0 2.762-.5717 3.0416-.9606.102-.142.1243-.4185.0491-.6145-.0752-.196-.004-.603.1566-.9048.2078-.3882.1961-.8076-.0398-1.4325-.2846-.754-.2605-.9557.1648-1.3782.2376-.236.3685-.3516.505-.324zm7.8538.2755c-.1448.5784-.3373 1.1087-.6015 1.5983l-.9013-.5488.6894-.5297c.3446-.2649.6834-.479.8134-.5198zM190.0184 10.0898c-1.897 0-3.5925.057-5.0555.9028-1.44.823-2.6284 2.0204-3.6344 3.6892l.3131-4.0948-6.9939.297-7.3328-.25.0496 10.4515.0279 12.2427.2733 11.8479-.279 10.7952 7.2388.1648 6.566.1039.0372-10.8857.291-10.1311.1602-9.958c0-3.4293-.0313-5.0488.2206-5.826.251-.8002.5994-1.2475 1.5823-1.2475.937 0 1.6316-.025 1.8366.6609.206.6858.339 2.9892.339 6.121l-.291 7.4766.5112 11.1518-.462 6.0761-.0532 6.317 7.953.154 5.9293.1162.0202-9.9322.004-14.1526.008-8.108c0-3.9779.033-6.7258-.401-8.4176-.435-1.7146-1.574-3.1493-3.083-4.2695-1.508-1.1202-3.3973-1.2956-5.7753-1.2956zm-4.223 2.5363c.8253 0 .4148.8152-.8351 1.6588-.8369.5648-1.3275.7464-1.4557.539-.2297-.3716 1.6738-2.1978 2.2908-2.1978zm3.7853.2827c.4262 0 1.194.8778 1.0774 1.232-.168.5106-1.3125.5542-1.5032.0573-.2036-.5306.047-1.2893.4258-1.2893zm-15.352.8464c.2328 0 .4232.1196.4232.2657 0 .3558-.4407.6104-.6661.385-.3179-.3179-.1936-.6507.2429-.6507zm19.884.0615c.399.3699.748.7943 1.0568 1.2578-.0504.0229-.1006.0505-.151.0713-.481.1993-.9495.5974-1.0407.8847-.0912.2874-.6715.9232-1.2898 1.4129-.6183.4897-1.3785 1.389-1.6893 1.9983-.3108.6093-.963 1.3498-1.449 1.6454-.3311.2014-.818.591-1.3782 1.082-.1163-1.0167-.3162-1.9375-.6563-2.7052.16-.2591.3559-.3107.6852-.2062.432.1372.682-.0213 1.0547-.6707.2686-.468.6974-.9056.9535-.9726.256-.0669.6389-.483.8506-.9245.2116-.4414.6664-.9427 1.0102-1.1141.2301-.1147 1.0495-.8301 2.0433-1.759zm-14.7588.3917l.043.214c.048.2404.094.459.139.6676-.0679-.0273-.1303-.062-.1804-.1121-.324-.324-.2788-.6528-.002-.7695zm17.6563 6.7304c.0735.7231.1105 1.4556.1173 2.1843-.2188.1923-.4126.4293-.5142.6522-.18.395-.75.9794-1.2666 1.2986-.5166.3193-.94.7921-.941 1.0511 0 .259-.7051 1.1541-1.5642 1.989-1.5978 1.5528-2.5038 2.9247-2.312 3.5.0658.1976.6208.2916 1.4283.242 1.718-.1057 1.7223.3399.016 1.7208-1.3474 1.0904-1.7999 1.1406-1.7999.1994 0-.3013-.131-.5477-.2914-.5477-.1793 0-.732.236-1.3302.5322a32.8706 32.8706 0 00-.1157-1.2924c-.0407-.4008-.0685-.8132-.0894-1.2314.4617.3744.6976.3752.6976-.0026 0-.1495-.321-.5392-.7307-.9064a56.7169 56.7169 0 01-.015-1.4522 5.6123 5.6123 0 01.6056-.0418c1.2145-.0177 1.4143-.1122 1.8134-.8563.7512-1.4008 1.807-2.5623 2.7719-3.0494.5045-.2547.9172-.579.9172-.721 0-.3868 1.3621-1.9983 2.603-3.2684zm-20.8308.5446c.0593-.007.1221.0061.185.045.3428.2119.3405.9757-.003.9757-.146 0-.3438-.127-.4397-.2822-.187-.3026.0009-.7082.2578-.7385zm-5.4518 1.5912c.384-.0143 1.1444 1.1173 1.0562 1.572-.1406.7253-.546.7465-1.6309.0852l-.5565-.339c-.003-.1872-.005-.3776-.007-.5658l.2816-.2166c.379-.2912.7645-.5323.8568-.5358zm4.0685 1.0505c.1555-.0116.309.1274.3663.4248.0595.309-.0788.494-.3694.494-.2712 0-.4269-.1825-.3737-.4382.0638-.3065.2213-.469.3768-.4806zm-2.4304 2.4831c.1034.0051.2017.019.2889.0419.5587.146.6115.2862.4434 1.1823-.2665 1.4206-.5667 1.7699-1.08 1.2568-.1035-.1035-.1887-.3794-.1887-.6129 0-.2335-.2007-.6467-.4465-.9183-.4096-.4526-.4016-.5178.0956-.784.2237-.1196.5773-.181.8873-.1658zm24.5644.1493a29.9229 29.9229 0 01-.0858.679c-.0005.406.0006.7815.0005 1.1788-.7577.7522-1.3084 1.3683-1.3084 1.4831 0 .3093-1.366 1.4366-1.7405 1.4366-.1391 0-.3225-.1803-.4072-.401-.0847-.2207.003-.697.1923-1.0583.4592-.8718 2.7431-3.114 3.3491-3.3182zm-25.1747 2.8174c.7942-.0187 1.4837.3586 1.4837.9757 0 .173-.4436.5263-.986.785-.7888.3761-1.1277.406-1.6924.1488-.354-.1613-.576-.2122-.7917-.14-.0156-.4897-.0277-.991-.0424-1.4842.0105.0072.025.014.0336.0212.2254.187.5265.1803.9022-.0207.3494-.187.732-.2773 1.093-.2858zm7.5934.2026c-.0154.9583-.0317 1.9178-.0496 2.8789-.1983.0797-.4018.1673-.599.2656-.5967.2976-1.339.624-1.6495.7256-.5309.1736-.5353.2061-.0708.5482.636.4684.6278 1.0804-.0222 1.6687-.6674.604-1.1776.5514-1.91-.1974-.3255-.333-.677-.9545-.7813-1.3813-.1933-.791-.5708-1.0019-.8847-.494-.2701.437-1.2682.333-1.4542-.1515-.2134-.556.6711-1.542 1.3834-1.542.3098 0 .611.2447.6945.5643.347 1.3267 2.9457.3083 3.2319-1.2666.056-.3086.3549-.6069.6635-.663.4447-.0808 1.0564-.5168 1.448-.9555zm-4.979.0641c.1551 0 .282.1904.282.4232 0 .2329-.1269.4238-.282.4238-.1553 0-.2827-.191-.2827-.4238s.1274-.4232.2826-.4232zm-1.5659 4.7982c.2765 0 .4051.2256.3618.635-.0533.5035.0937.6532.709.724.9751.1123.9887.6603.0403 1.6087-.4045.4045-.648.8228-.541.9297.1068.107.5732-.2297 1.0366-.7483.6733-.7536.9844-.9076 1.5492-.7658.8199.2057.754.7247-.1498 1.1792-1.0133.5097-2.2883 1.8612-2.2883 2.4257 0 .684-.7141.9358-1.5601.5504-.3726-.1698-.745-.1998-.8273-.0667-.0823.1331.0404.3151.2723.404.6388.2452.506.7262-.2837 1.0264-.388.1475-.7059.3897-.7059.5384 0 .0858-.1233.173-.3033.2434a334.377 334.377 0 00-.075-3.3656c.1931-.1822.423-.355.661-.4822.9239-.4937 1.0007-.6426 1.1875-2.3063.2453-2.1835.3707-2.53.9168-2.53zm5.8178 1.728c.0884.0111.1906.062.2925.1638.2026.2027.208.3605.015.4796-.158.0977-.3726.0399-.4765-.1282h.0005c-.1676-.2712-.0872-.482.0853-.5136a.287.287 0 01.0832-.002zm10.9363 1.6635c.175.0199.2945.1234.4382.3199.2364.3233.5882.419 1.1498.3116.5693-.1088.914-.0116 1.1622.3276.2278.3115.9149.5401 1.9399.646.8728.09 1.6541.2726 1.7363.4056.0747.1209.4744.2204.9178.2408.005.5939.009 1.2097.0145 1.801-.618-.7211-2.21-1.2645-2.7988-.9493-.7869.421-1.4125.3471-1.2237-.1447.1326-.3455-.1303-.4238-1.4288-.4238-1.1312 0-1.637-.1183-1.7488-.4098-.0865-.2255-.5268-.4159-.9787-.4232-.0333-.0005-.0842-.001-.1204-.002.0154-.493.0264-.9824.0336-1.4676.045-.0166.0842-.0305.1348-.0496.3664-.1383.597-.2024.772-.1824zm-11.2516 4.2633c.1523-.004.3104.0183.4553.0739.5655.217.254.738-.4413.738-.2921 0-.6098-.128-.7064-.2843-.1681-.272.2355-.5163.6924-.5276zm12.4086 2.5399c.098.004.1825.0296.2294.0765.0938.0938-.073.1606-.3705.1483-.3288-.0135-.3957-.0804-.1705-.1705a.7747.7747 0 01.3116-.0543zm-19.7425.3142a.5221.5221 0 01.2972.077c.3156.195.1084.7028-.2868.7028-.137 0-.3221-.1186-.4114-.263-.1565-.2533.1029-.505.401-.5168zm23.4348.6387c.2285 0 .4582.2224.5105.494.0668.3466-.0855.4935-.5105.4935-.4251 0-.5774-.147-.5106-.4935.0523-.2716.282-.494.5106-.494zm-1.5524 1.8345c.2328 0 .4238.1904.4238.4232 0 .4408-.3342.56-.659.2352-.3247-.3247-.2055-.6584.2352-.6584zm4.1155 1.14c.003.4784.004 1.0003.007 1.4862-.2535.1827-.3563.1284-.4806-.1953-.2231-.5815.021-1.2039.4734-1.291zm-17.9534 1.0294a.0504.0504 0 01.0129.002c-.003.6873-.008 1.3749-.008 2.0608-.7008-.006-.7277-.0839-.5524-.9157.1617-.7673.319-1.1392.5477-1.1467zm13.6968.3705a.283.283 0 01.2822.2822.283.283 0 01-.2822.2821.283.283 0 01-.2821-.2821.283.283 0 01.2821-.2822zm-17.8599.1085c.4084-.0279.9743.4333.7659.7705-.2148.3476-.8959.3131-1.1245-.0568-.1043-.1687-.0536-.4425.1127-.6087.066-.066.1517-.0985.246-.105zm14.2219 1.1152c.4697-.003.6299.468.2625 1.1545-.3876.7242-.9628 1.0918-1.2536.801-.0425-.0426-.0758-.0949-.1034-.152a68.21 68.21 0 01.0165-.9457c.1031-.2948.2797-.5618.5131-.6867.2172-.1163.4083-.17.5649-.1711zm-14.4678 1.3162c.3775 0 1.194 1.0131.985 1.2222-.2728.2726-.5009.234-.8848-.15-.3894-.3893-.4533-1.0722-.1002-1.0722zm21.072.492c.1556-.0117.3097.1278.367.4253.0595.3089-.0788.494-.3695.494-.2711 0-.427-.1825-.3736-.4382.0638-.3065.2207-.4695.3762-.4811zm-19.0525.6371c.3763 0 .5643.188.5643.5643 0 .544-.552.7647-.9405.3762-.3885-.3884-.1677-.9405.3762-.9405z" font-size="70.2296" font-family="Impact" fill="#fdba74"/><text style="line-height:1.25" x="125.4233" y="103.524" font-size="10.5833" font-family="sans-serif" stroke-width=".2646" transform="translate(-6.1924 -68.7591)"/><text style="line-height:1.25" x="109.8021" y="104.775" font-size="10.5833" font-family="sans-serif" stroke-width=".2646" transform="translate(-6.1924 -68.7591)"/></g></svg>